<svg width="140" height="140" viewBox="0 0 140 140" fill="none" xmlns="http://www.w3.org/2000/svg">
<circle cx="70" cy="70" r="70" fill="white"/>
<path d="M107.721 112.017C107.721 118.363 103.498 122 96.8638 122C88.118 122 82.3694 115.647 73.0391 115.647C62.1824 115.647 55.8492 122 46.8019 122C39.8656 121.698 35.6436 117.753 35.6436 110.504C35.6436 94.798 50.7224 71.4773 70.9281 71.4773C89.9275 71.4773 107.721 100.218 107.721 112.017Z" fill="#100400"/>
<path fill-rule="evenodd" clip-rule="evenodd" d="M45.3164 76.4596C45.803 72.1075 44.7234 66.9936 41.9784 62.224C36.6497 52.9653 27.0633 48.5101 20.5664 52.2729C14.0695 56.0358 13.1224 66.5918 18.4511 75.8504C22.3868 82.6889 28.6453 86.9069 34.2661 87.1287C32.6112 86.2244 30.7928 84.6061 29.0084 82.3685C27.6632 80.6817 27.0047 76.5225 26.3472 72.3697C26.136 71.0357 25.9249 69.7023 25.6912 68.4518C24.9699 64.5934 21.7579 64.0028 20.4844 63.7686C20.1602 63.709 19.9616 63.6725 19.9617 63.611C19.9617 62.7036 23.5806 62.7036 23.5806 62.7036C23.5806 61.191 25.9933 59.9806 28.7074 59.9807C32.9295 59.9807 35.6431 63.9141 35.6431 66.6369C35.6431 67.8057 36.4983 68.4326 37.7567 69.355C38.1269 69.6264 38.532 69.9234 38.9605 70.2673C40.9491 71.8632 43.8272 74.3244 45.3164 76.4596Z" fill="#100400"/>
<path fill-rule="evenodd" clip-rule="evenodd" d="M99.5613 45.444C100.247 43.7848 100.793 41.9996 101.169 40.1174C103.388 29.0279 98.8777 18.7683 91.0962 17.2019C83.3146 15.6354 75.2082 23.3553 72.9899 34.4447C70.8532 45.1264 74.959 55.0383 82.2183 57.1526C79.9752 55.7024 79.9823 53.6061 80.2766 52.7203C79.774 52.8211 78.9497 52.7808 79.6735 51.8127C80.3973 50.8446 80.1761 50.6026 79.9751 50.6026C79.9751 50.6026 78.9949 50.6026 79.6735 49.695C80.352 48.7874 82.3877 45.4595 82.3877 44.8545C81.9052 44.8545 81.9856 44.4511 82.0861 44.2494C82.1879 44.0792 82.2897 43.9102 82.3903 43.7434C83.183 42.4279 83.8956 41.2455 83.8956 40.619C83.594 40.619 83.1267 40.4827 83.8956 39.7114C85.1019 38.5013 85.0013 37.4929 84.8003 36.9887C84.4987 36.9887 83.8352 36.8071 83.594 36.0811C83.3527 35.355 82.2872 35.1735 81.7845 35.1735C79.9751 35.1735 79.0703 34.2659 79.0703 33.6608C79.0703 33.5437 79.0703 33.472 79.0354 33.428C78.98 33.3583 78.8369 33.3583 78.4672 33.3583C77.7434 33.6003 77.7635 33.2574 77.864 33.0557L78.4672 32.4507C78.9497 31.9666 79.573 31.8456 79.6735 31.8456H81.7845C82.3877 32.1482 82.6893 31.5431 82.0861 31.5431C79.6735 30.575 79.0703 29.3245 79.0703 28.8203L78.7688 26.7026C78.7688 26.5009 78.8894 26.0975 79.3719 26.0975C81.302 26.0975 81.7845 26.2992 81.7845 26.4001C82.9908 27.0051 84.1971 27.0051 84.4987 27.0051C85.4638 27.0051 86.3082 26.7026 86.9113 26.4001C87.0567 26.3272 87.2021 26.2015 87.3644 26.0613C87.8753 25.6196 88.5538 25.0332 89.9271 25.4925C91.0743 26.0679 92.2214 26.5217 93.0612 26.8539C93.5461 27.0457 93.9284 27.1969 94.1492 27.3077C94.6317 27.5497 94.7524 28.0136 94.7524 28.2153C94.9534 28.6186 95.4761 29.6069 95.9587 30.333C96.4412 31.059 96.5618 32.249 96.5618 32.7532V33.9634H96.2602C96.2602 35.6575 97.2655 37.6946 97.7681 38.5013H96.9144C96.9662 38.6524 97.0533 39.0147 97.1554 39.4394C97.3521 40.2577 97.6045 41.3078 97.7681 41.5266H97.4666C98.3829 43.7327 99.1252 44.9148 99.5613 45.444Z" fill="#100400"/>
<path fill-rule="evenodd" clip-rule="evenodd" d="M61.599 54.2733C65.5826 50.0212 67.3066 42.4622 65.5474 34.5493C63.1059 23.5668 54.8793 16.0614 47.1727 17.7855C39.4662 19.5096 35.1981 29.8104 37.6396 40.7929C38.6015 45.1197 40.4614 48.9069 42.8336 51.8025C42.7772 50.8099 42.6828 50.0896 42.5369 49.8194C41.9221 48.6808 41.8866 47.9973 41.9457 47.7978C42.0245 47.5318 42.2315 46.9061 42.4293 46.5309C42.3475 45.6381 42.6136 43.4742 42.7569 42.5038C43.1097 40.5828 43.9335 36.3418 44.4064 34.746C44.8792 33.1503 45.5993 32.4243 45.9002 32.2607C46.1066 32.1486 46.2871 32.0504 46.3463 31.851C46.5354 31.2127 46.8406 30.9129 46.9696 30.8428C46.9866 30.8336 47.0027 30.826 47.0179 30.8188C47.1188 30.7713 47.1832 30.7409 47.2168 30.3738C47.2555 29.9511 47.5159 29.4861 47.6413 29.3064C47.892 28.9469 48.4785 28.0146 48.8181 27.1607C49.1577 26.3067 49.5005 25.9531 49.6295 25.883C49.7818 25.856 50.1164 25.9196 50.2368 26.3897C50.3185 27.2824 50.7116 28.1956 50.8979 28.5406C50.8979 28.5406 52.0747 26.395 52.8593 26.3033C52.9775 26.2895 52.9823 26.6792 52.9885 27.19C52.9989 28.0354 53.0133 29.2123 53.5527 29.4408C54.183 29.7078 55.8725 30.1325 56.6643 30.2601C57.3897 30.3679 57.7646 30.5873 58.0669 31.004C58.5323 31.6457 58.7055 32.0744 58.831 32.3849C58.9871 32.7714 59.0693 32.9749 59.5491 33.1781C59.7999 33.2844 60.249 33.4772 60.9853 33.9138C61.882 34.4456 61.7768 34.6752 61.6753 34.8965L61.673 34.9015C61.6103 34.9914 61.4871 35.2369 61.4957 35.4999V35.5C61.5065 35.8288 61.5172 36.1576 61.399 36.5566C61.3616 36.6829 61.3231 36.7762 61.2827 36.8743C61.1954 37.0858 61.0991 37.3192 60.9853 37.9529C60.8188 38.8801 60.6307 39.1497 58.8143 39.8021C57.3612 40.324 56.2313 41.0943 55.8479 41.4142C55.8437 42.8891 56.3801 43.6353 56.6488 43.8239C57.781 44.9937 60.2463 48.2617 61.0505 51.9749C61.2352 52.8282 61.4202 53.5937 61.599 54.2733Z" fill="#100400"/>
<path fill-rule="evenodd" clip-rule="evenodd" d="M114.524 81.9539C117.313 79.7363 119.805 76.5867 121.57 72.7539C126.057 63.0134 124.153 52.5489 117.318 49.3808C110.483 46.2126 101.305 51.5406 96.8188 61.2811C93.9701 67.4659 93.6977 73.9426 95.6283 78.658C95.6532 78.5791 95.678 78.4996 95.7027 78.4192C99.9395 62.7272 106.908 63.0257 108.65 63.1003C108.911 63.1115 109.055 63.1176 109.055 63.0644C109.055 62.6557 107.278 62.7141 105.903 62.8309C105.712 62.8698 105.204 62.9476 104.7 62.9476C104.069 62.9476 102.694 62.4806 102.694 61.1378C102.694 59.7949 103.668 59.6782 104.7 59.6782C104.85 59.6782 105.004 59.6844 105.158 59.6907C106.058 59.7273 106.986 59.7652 107.622 58.5689C107.733 58.3598 107.828 58.1767 107.911 58.0165C108.382 57.1032 108.47 56.9342 109.055 56.9342C109.605 56.9342 110.01 57.3234 110.143 57.518C110.411 57.8099 111.106 58.3937 111.748 58.3937C112.39 58.3937 112.741 58.0434 112.837 57.8683C112.856 57.7904 112.997 57.6348 113.41 57.6348C113.822 57.6348 114.002 58.2575 114.04 58.5689C114.117 59.0165 114.384 59.9117 114.842 59.9117C115.416 59.9117 116.504 59.9117 116.504 61.021C116.504 61.511 116.365 61.6201 116.239 61.7178C116.138 61.797 116.046 61.8688 116.046 62.1303C116.046 62.4027 116.195 62.9476 116.791 62.9476C117.02 62.9476 117.192 62.9476 117.192 63.2396C117.192 63.4342 116.699 64.0336 114.728 64.8743C114.728 65.0144 114.842 65.0105 114.9 64.991C116.103 65.1662 118.556 66.0653 118.739 68.2605C118.854 68.2605 116.332 67.5599 114.613 68.494C114.613 68.6887 114.774 69.3931 115.416 70.6542C115.437 70.6955 115.458 70.738 115.48 70.7814C116.305 72.397 117.866 75.457 115.244 76.0255C112.55 76.6093 111.347 75.033 111.347 74.0405C111.347 73.7986 111.364 73.4633 111.383 73.0867C111.442 71.9175 111.522 70.3511 111.175 69.9536C110.717 69.4282 110.602 72.4057 110.602 73.1647C110.602 73.8941 110.655 76.133 114.524 81.9539Z" fill="#100400"/>
<path d="M61.0224 89.5892H58.3571V87.5876H61.0224C61.3857 87.5876 61.6802 87.5261 61.906 87.403C62.1318 87.2799 62.2962 87.11 62.3993 86.8933C62.5073 86.6718 62.5613 86.4231 62.5613 86.1474C62.5613 85.8519 62.5073 85.5786 62.3993 85.3275C62.2962 85.0764 62.1318 84.8745 61.906 84.7219C61.6802 84.5643 61.3857 84.4855 61.0224 84.4855H59.329V93.2379H56.7447V82.4839H61.0224C61.8814 82.4839 62.6202 82.6415 63.2386 82.9566C63.862 83.2717 64.3406 83.705 64.6744 84.2565C65.0081 84.8031 65.175 85.4284 65.175 86.1326C65.175 86.8269 65.0081 87.4325 64.6744 87.9495C64.3406 88.4666 63.862 88.8703 63.2386 89.1609C62.6202 89.4464 61.8814 89.5892 61.0224 89.5892Z" fill="white"/>
<path d="M73.944 91.2437V93.2379H68.2306V91.2437H73.944ZM69.1509 82.4839V93.2379H66.5666V82.4839H69.1509ZM73.2078 86.753V88.6808H68.2306V86.753H73.2078ZM73.9661 82.4839V84.4855H68.2306V82.4839H73.9661Z" fill="white"/>
<path d="M80.3422 82.4839V93.2379H77.7579V82.4839H80.3422ZM83.5671 82.4839V84.4855H74.6067V82.4839H83.5671Z" fill="white"/>
<path d="M45.9951 100.031H50.214C51.0386 100.031 51.7552 100.154 52.3639 100.4C52.9725 100.646 53.4413 101.011 53.7702 101.493C54.1039 101.976 54.2708 102.572 54.2708 103.281C54.2708 103.896 54.1751 104.411 53.9837 104.824C53.7922 105.238 53.5247 105.58 53.1811 105.851C52.8425 106.117 52.4473 106.336 51.9957 106.508L51.149 106.988H47.6076L47.5928 104.987H50.214C50.5428 104.987 50.8152 104.928 51.0312 104.809C51.2472 104.691 51.4092 104.524 51.5172 104.307C51.6301 104.086 51.6865 103.822 51.6865 103.517C51.6865 103.207 51.6301 102.941 51.5172 102.719C51.4043 102.498 51.2374 102.328 51.0165 102.21C50.8005 102.091 50.533 102.032 50.214 102.032H48.5794V110.785H45.9951V100.031ZM51.8632 110.785L49.4924 106.028L52.2313 106.013L54.6316 110.674V110.785H51.8632Z" fill="white"/>
<path d="M60.3745 102.291L57.7608 110.785H54.985L58.9241 100.031H60.6838L60.3745 102.291ZM62.5392 110.785L59.918 102.291L59.5793 100.031H61.3611L65.3223 110.785H62.5392ZM62.4361 106.774V108.776H56.9361V106.774H62.4361Z" fill="white"/>
<path d="M75.0632 100.031V110.785H72.4862L68.6944 104.093V110.785H66.1101V100.031H68.6944L72.4862 106.722V100.031H75.0632Z" fill="white"/>
<path d="M85.4667 105.038V109.455C85.2851 109.657 85.0053 109.874 84.6273 110.105C84.2543 110.332 83.7831 110.526 83.2137 110.689C82.6443 110.851 81.9743 110.932 81.2037 110.932C80.492 110.932 79.8465 110.819 79.2673 110.593C78.6881 110.361 78.1899 110.024 77.7726 109.581C77.3603 109.133 77.0413 108.586 76.8155 107.941C76.5946 107.291 76.4842 106.548 76.4842 105.711V105.112C76.4842 104.275 76.5971 103.532 76.8229 102.882C77.0486 102.232 77.3652 101.685 77.7726 101.242C78.185 100.794 78.6684 100.454 79.2231 100.223C79.7827 99.9913 80.3962 99.8756 81.0638 99.8756C82.0504 99.8756 82.8529 100.033 83.4714 100.348C84.0899 100.659 84.5586 101.089 84.8777 101.641C85.1967 102.187 85.3906 102.82 85.4593 103.539H82.9781C82.929 103.185 82.8358 102.884 82.6983 102.638C82.5658 102.387 82.3744 102.197 82.124 102.069C81.8737 101.936 81.5497 101.87 81.1521 101.87C80.8429 101.87 80.5607 101.936 80.3054 102.069C80.0551 102.202 79.8416 102.404 79.6649 102.675C79.4882 102.941 79.3507 103.276 79.2526 103.679C79.1593 104.083 79.1127 104.556 79.1127 105.098V105.711C79.1127 106.247 79.1568 106.718 79.2452 107.121C79.3385 107.525 79.4759 107.862 79.6575 108.133C79.844 108.399 80.0796 108.601 80.3643 108.739C80.6539 108.872 80.9951 108.938 81.3877 108.938C81.6626 108.938 81.8982 108.916 82.0946 108.872C82.2909 108.823 82.4529 108.763 82.5805 108.695C82.713 108.621 82.8137 108.552 82.8824 108.488V106.818H81.0859V105.038H85.4667Z" fill="white"/>
<path d="M94.3535 108.791V110.785H88.64V108.791H94.3535ZM89.5604 100.031V110.785H86.9761V100.031H89.5604ZM93.6172 104.3V106.228H88.64V104.3H93.6172ZM94.3756 100.031V102.032H88.64V100.031H94.3756Z" fill="white"/>
</svg>
