<svg width="27" height="27" viewBox="0 0 27 27" fill="none" xmlns="http://www.w3.org/2000/svg">
<path d="M13.5 26.6203L1.85625 12.7828C0.632812 11.3906 0 9.57656 0 7.7625C0 3.45937 3.45937 0 7.67812 0C9.95625 0 12.0656 0.970313 13.5 2.65781C14.9344 0.970313 17.0437 0 19.3219 0C23.5406 0 27 3.45937 27 7.7625C27 9.61875 26.3672 11.3906 25.1437 12.7828L13.5 26.6203ZM7.67812 1.6875C4.3875 1.6875 1.6875 4.42969 1.6875 7.7625C1.6875 9.19688 2.19375 10.5891 3.12188 11.6859L13.5 24.0047L23.8781 11.6859C24.8062 10.5891 25.3125 9.19688 25.3125 7.7625C25.3125 4.42969 22.6125 1.6875 19.3219 1.6875C17.2547 1.6875 15.3562 2.74219 14.2172 4.51406L13.5 5.69531L12.7828 4.55625C11.6859 2.74219 9.7875 1.6875 7.67812 1.6875Z" fill="#F1601C"/>
<path d="M7.67812 1.6875C4.3875 1.6875 1.6875 4.42969 1.6875 7.7625C1.6875 9.19688 2.19375 10.5891 3.12188 11.6859L13.5 24.0047L23.8781 11.6859C24.8062 10.5891 25.3125 9.19688 25.3125 7.7625C25.3125 4.42969 22.6125 1.6875 19.3219 1.6875C17.2547 1.6875 15.3562 2.74219 14.2172 4.51406L13.5 5.69531L12.7828 4.55625C11.6859 2.74219 9.7875 1.6875 7.67812 1.6875Z" fill="#F1601C"/>
</svg>
