<svg width="20" height="22" viewBox="0 0 20 22" fill="none" xmlns="http://www.w3.org/2000/svg">
<path fill-rule="evenodd" clip-rule="evenodd" d="M0.0742403 22C-0.10084 21.4476 -0.0638701 20.0214 1.29302 19.0299C1.38346 18.9638 1.48001 18.8954 1.58266 18.8247L1.90889 18.6058L2.27171 18.3731L2.67111 18.1267L3.10711 17.8665L3.57969 17.5926L4.08886 17.3049L4.92122 16.8475L5.52186 16.5254L6.8329 15.8399L6.83047 15.5048L6.82163 15.2756C6.79456 14.821 6.70255 14.4099 6.38971 14.4099C4.6499 14.4099 3.77557 12.102 3.37152 9.87006L3.30118 9.45304L3.24128 9.04129C3.23214 8.9733 3.2234 8.90567 3.21507 8.83848L3.16975 8.44119L3.13342 8.05789L3.10552 7.69209L3.08545 7.34728L3.07264 7.02694L3.06578 6.59997C3.06578 2.95491 6.04213 0 9.71364 0H9.69812H9.71364H9.69812C13.3696 0 16.346 2.95491 16.346 6.59997L16.3391 7.02694L16.3263 7.34728L16.3062 7.69209L16.2783 8.05789L16.242 8.44119L16.1967 8.83848C16.1884 8.90567 16.1796 8.9733 16.1705 9.04129L16.1106 9.45304L16.0402 9.87006C15.6362 12.102 14.7619 14.4099 13.0221 14.4099C12.7092 14.4099 12.6172 14.821 12.5901 15.2756L12.5813 15.5048L12.5789 15.8399L13.8899 16.5254L14.4905 16.8475L15.3229 17.3049L15.8321 17.5926L16.3047 17.8665L16.7407 18.1267L17.1401 18.3731L17.5029 18.6058L17.8291 18.8247C17.9318 18.8954 18.0283 18.9638 18.1187 19.0299C19.4756 20.0214 19.5126 21.4476 19.3375 22H0.0742403Z" fill="white"/>
</svg>
