<svg width="28" height="25" viewBox="0 0 28 25" fill="none" xmlns="http://www.w3.org/2000/svg">
<path fill-rule="evenodd" clip-rule="evenodd" d="M17.055 0.251899C17.9532 -0.266657 19.1017 0.0410769 19.6202 0.939243L24.6995 9.7367L25.4293 9.73713C26.7257 9.73713 27.7767 10.7881 27.7767 12.0845C27.7767 13.3808 26.7257 14.4318 25.4293 14.4318L25.1164 14.4313L22.5343 24.76H5.63358L3.05152 14.4313L2.34732 14.4318C1.05093 14.4318 0 13.3808 0 12.0845C0 10.7881 1.05093 9.73713 2.34732 9.73713L3.34165 9.7367L8.42186 0.939243C8.94041 0.0410769 10.0889 -0.266657 10.9871 0.251899C11.8852 0.770455 12.193 1.91894 11.6744 2.8171L7.67856 9.7367H20.3626L16.3677 2.8171C15.8738 1.96171 16.1294 0.879267 16.9308 0.330168L17.055 0.251899Z" fill="white"/>
</svg>
