<svg width="31" height="31" viewBox="0 0 31 31" fill="none" xmlns="http://www.w3.org/2000/svg">
<path d="M15.5 2.79285C19.6387 2.79285 20.1289 2.8086 21.7633 2.88317C23.2745 2.95214 24.0952 3.20465 24.6415 3.41686C25.3649 3.69804 25.8813 4.03398 26.4237 4.57634C26.966 5.11871 27.302 5.63511 27.5831 6.35854C27.7953 6.90478 28.0479 7.7255 28.1168 9.23667C28.1914 10.8711 28.2071 11.3613 28.2071 15.5C28.2071 19.6387 28.1914 20.1289 28.1168 21.7633C28.0479 23.2746 27.7953 24.0953 27.5831 24.6415C27.302 25.365 26.966 25.8814 26.4237 26.4237C25.8813 26.9661 25.3649 27.302 24.6415 27.5831C24.0952 27.7954 23.2745 28.0479 21.7633 28.1169C20.1291 28.1915 19.6389 28.2072 15.5 28.2072C11.361 28.2072 10.8708 28.1915 9.23667 28.1169C7.72544 28.0479 6.90472 27.7954 6.35854 27.5831C5.63504 27.302 5.11864 26.9661 4.57628 26.4237C4.03392 25.8814 3.69798 25.365 3.41686 24.6415C3.20459 24.0953 2.95208 23.2746 2.88311 21.7634C2.80854 20.1289 2.79279 19.6387 2.79279 15.5C2.79279 11.3613 2.80854 10.8711 2.88311 9.23673C2.95208 7.7255 3.20459 6.90478 3.41686 6.35854C3.69798 5.63511 4.03392 5.11871 4.57628 4.57634C5.11864 4.03398 5.63504 3.69804 6.35854 3.41686C6.90472 3.20465 7.72543 2.95214 9.23661 2.88317C10.8711 2.8086 11.3613 2.79285 15.5 2.79285ZM15.5 0C11.2904 0 10.7626 0.0178429 9.10937 0.0932755C7.45951 0.168585 6.33283 0.430568 5.34685 0.813761C4.32759 1.20987 3.46319 1.73987 2.6015 2.60156C1.73981 3.46325 1.20981 4.32765 0.813699 5.34691C0.430507 6.33289 0.168523 7.45958 0.0932139 9.10943C0.0177814 10.7626 0 11.2905 0 15.5C0 19.7096 0.0177814 20.2375 0.0932139 21.8906C0.168523 23.5405 0.430507 24.6672 0.813699 25.6532C1.20981 26.6723 1.73981 27.5368 2.6015 28.3985C3.46319 29.2602 4.32759 29.7902 5.34685 30.1863C6.33283 30.5695 7.45951 30.8315 9.10937 30.9068C10.7626 30.9822 11.2904 31 15.5 31C19.7095 31 20.2374 30.9822 21.8906 30.9068C23.5404 30.8315 24.6671 30.5695 25.6531 30.1863C26.6724 29.7902 27.5367 29.2602 28.3984 28.3985C29.2601 27.5368 29.7901 26.6724 30.1862 25.6532C30.5694 24.6672 30.8314 23.5405 30.9067 21.8906C30.9822 20.2375 31 19.7096 31 15.5C31 11.2905 30.9822 10.7626 30.9067 9.10943C30.8314 7.45958 30.5694 6.33289 30.1862 5.34691C29.7901 4.32765 29.2601 3.46325 28.3984 2.60156C27.5367 1.73987 26.6724 1.20987 25.6531 0.813761C24.6671 0.430568 23.5404 0.168585 21.8906 0.0932755C20.2374 0.0178429 19.7095 0 15.5 0ZM15.5 7.54055C11.1041 7.54055 7.54048 11.1041 7.54048 15.5C7.54048 19.8959 11.1041 23.4595 15.5 23.4595C19.8959 23.4595 23.4595 19.8959 23.4595 15.5C23.4595 11.1041 19.8959 7.54055 15.5 7.54055ZM15.5 20.6667C12.6465 20.6667 10.3333 18.3535 10.3333 15.5C10.3333 12.6466 12.6465 10.3333 15.5 10.3333C18.3534 10.3333 20.6667 12.6466 20.6667 15.5C20.6667 18.3535 18.3534 20.6667 15.5 20.6667ZM25.6339 7.22608C25.6339 8.25334 24.8012 9.08611 23.7739 9.08611C22.7467 9.08611 21.9139 8.25334 21.9139 7.22608C21.9139 6.19882 22.7467 5.36611 23.7739 5.36611C24.8012 5.36611 25.6339 6.19882 25.6339 7.22608Z" fill="#101010"/>
</svg>
