<svg width="22" height="24" viewBox="0 0 22 24" fill="none" xmlns="http://www.w3.org/2000/svg">
<g clip-path="url(#clip0_306_5917)">
<path d="M20.1408 2.93245C21.1676 2.93245 22 3.74797 22 4.75397C22 5.75996 21.1676 6.57548 20.1408 6.57548L19.893 6.57514L17.8479 23.3334H4.46197L2.4169 6.57514L1.85915 6.57548C0.832372 6.57548 0 5.75996 0 4.75397C0 3.74797 0.832372 2.93245 1.85915 2.93245C4.29796 2.59712 6.00888 2.37963 6.9919 2.28C7.7776 2.20036 8.42158 2.14005 9.04491 2.09904C9.38751 2.07651 8.69469 0.692378 9.04491 0.681511C9.37103 0.671393 10.7383 0.666751 11.1047 0.666751C11.4803 0.666751 12.9954 0.666307 13.3778 0.67694C13.7532 0.687377 12.9958 2.07571 13.3778 2.09639C14.1209 2.13662 14.8764 2.19624 15.6443 2.27523C16.6138 2.37495 18.1126 2.59403 20.1408 2.93245Z" fill="#010101"/>
<path fill-rule="evenodd" clip-rule="evenodd" d="M3.82617 6.3335H7.56258L8.60878 21.4446H5.70932L3.82617 6.3335Z" fill="#101010"/>
<path fill-rule="evenodd" clip-rule="evenodd" d="M8.60938 6.3335H13.392L12.4355 21.4446H9.5659L8.60938 6.3335Z" fill="#101010"/>
<path fill-rule="evenodd" clip-rule="evenodd" d="M18.1738 6.3335H14.4374L13.3912 21.4446H16.2907L18.1738 6.3335Z" fill="#101010"/>
</g>
<defs>
<clipPath id="clip0_306_5917">
<rect width="22" height="22.6667" fill="white" transform="translate(0 0.666748)"/>
</clipPath>
</defs>
</svg>
