<svg width="33" height="26" viewBox="0 0 33 26" fill="none" xmlns="http://www.w3.org/2000/svg">
<g clip-path="url(#clip0_306_9481)">
<path fill-rule="evenodd" clip-rule="evenodd" d="M0.999999 22.4545C0.447714 22.4545 0 22.0068 0 21.4545V12.1698C0 11.9422 0.0776201 11.7214 0.22004 11.544L5.38942 5.10144C5.57922 4.8649 5.86611 4.72727 6.16939 4.72727H9.24138C9.79366 4.72727 10.2414 4.27956 10.2414 3.72727V0.999999C10.2414 0.447714 10.6891 0 11.2414 0H32C32.5523 0 33 0.447715 33 1V21.4545C33 22.0068 32.5523 22.4545 32 22.4545H0.999999Z" fill="white"/>
<path d="M7.39621 25.4091C9.2816 25.4091 10.81 23.8217 10.81 21.8636C10.81 19.9055 9.2816 18.3182 7.39621 18.3182C5.51083 18.3182 3.98242 19.9055 3.98242 21.8636C3.98242 23.8217 5.51083 25.4091 7.39621 25.4091Z" fill="#F1601C" stroke="white"/>
<path fill-rule="evenodd" clip-rule="evenodd" d="M7.46764 7.68182H11.3793V12.4091H6.96979H3.69824L7.46764 7.68182Z" fill="#F1601C"/>
<path d="M25.6032 25.4091C27.4886 25.4091 29.017 23.8217 29.017 21.8636C29.017 19.9055 27.4886 18.3182 25.6032 18.3182C23.7179 18.3182 22.1895 19.9055 22.1895 21.8636C22.1895 23.8217 23.7179 25.4091 25.6032 25.4091Z" fill="#F1601C" stroke="white"/>
</g>
<defs>
<clipPath id="clip0_306_9481">
<rect width="33" height="26" fill="white"/>
</clipPath>
</defs>
</svg>
