<svg width="38" height="30" viewBox="0 0 38 30" fill="none" xmlns="http://www.w3.org/2000/svg">
<path d="M37.5 3.5625C36.1199 4.14844 34.6209 4.57031 33.0742 4.73438C34.6685 3.79688 35.882 2.32031 36.453 0.5625C34.9778 1.42969 33.3122 2.0625 31.5752 2.39062C30.1713 0.914063 28.1726 0 25.9597 0C21.7005 0 18.2741 3.39844 18.2741 7.57031C18.2741 8.15625 18.3455 8.74219 18.4645 9.30469C12.0876 8.97656 6.4007 5.97656 2.61739 1.38281C1.95114 2.50781 1.57043 3.79688 1.57043 5.20312C1.57043 7.82812 2.92671 10.1484 4.99683 11.5078C3.73572 11.4609 2.546 11.1094 1.52284 10.5469V10.6406C1.52284 14.3203 4.16402 17.3672 7.6856 18.0703C7.04315 18.2344 6.35311 18.3281 5.66307 18.3281C5.16339 18.3281 4.6875 18.2812 4.21161 18.2109C5.18718 21.2109 8.01872 23.3906 11.3975 23.4609C8.75634 25.5 5.44892 26.6953 1.85596 26.6953C1.21352 26.6953 0.618655 26.6719 0 26.6016C3.4026 28.7578 7.44765 30 11.802 30C25.9359 30 33.6691 18.4688 33.6691 8.46094C33.6691 8.13281 33.6691 7.80469 33.6453 7.47656C35.1444 6.39844 36.453 5.0625 37.5 3.5625Z" fill="#101010"/>
</svg>
