<svg width="53" height="60" viewBox="0 0 53 60" fill="none" xmlns="http://www.w3.org/2000/svg">
<g opacity="0.7">
<path d="M32.7277 32.8316C32.4227 35.0305 32.1178 37.2294 31.7659 39.4283C31.1794 43.2047 30.7102 46.9811 29.9361 50.7097C29.5842 52.4784 28.9273 54.3188 27.8951 55.7529C26.3937 57.8562 24.0009 58.86 21.4907 59.3142C18.5818 59.84 16.5643 58.4298 15.0395 56.0636C14.5234 55.2749 13.9838 54.4861 13.5615 53.6257C11.7317 49.921 8.49436 48.1762 4.88165 46.9094C4.74089 46.8616 4.57668 46.8616 4.41246 46.8138C1.40969 46.0729 -0.560885 43.372 0.142891 40.3366C0.471319 38.8786 1.33931 37.2772 2.46535 36.3451C5.7731 33.5964 9.19814 30.9434 12.8343 28.625C16.189 26.4739 19.8721 24.8486 23.9305 24.4184C26.5579 24.1554 28.81 25.2071 30.851 26.6412C32.5635 27.8601 32.5635 29.8917 32.6104 31.8277C32.6104 32.1385 32.6104 32.4731 32.6104 32.7838C32.6573 32.7838 32.7042 32.7838 32.7512 32.7838L32.7277 32.8316ZM29.9126 36.7753C29.9126 35.7953 29.983 35.2217 29.9126 34.672C29.6311 32.9511 29.3965 31.2302 28.9508 29.5571C28.5754 28.123 27.7309 26.9041 26.1122 26.7607C24.822 26.6412 23.4379 26.5217 22.1945 26.8324C16.5409 28.2426 11.6144 31.1585 7.29794 35.0544C5.63234 36.5363 4.17787 38.3289 3.40372 40.5517C2.79378 42.3443 3.26296 43.2764 4.88165 44.1608C7.62637 45.6666 10.3242 47.2679 12.9751 48.941C13.6788 49.3712 14.1715 50.16 14.6876 50.8531C15.7667 52.2872 16.7285 53.8408 17.8311 55.251C19.7078 57.6411 21.7253 57.6889 23.9305 55.7051C25.8072 54.0081 27.121 52.0243 27.5198 49.443C27.8482 47.3157 28.1766 45.2124 28.5285 43.0852C28.6458 42.2965 28.7631 41.5077 28.9508 40.7429C29.2792 39.2849 29.6545 37.8269 29.9126 36.7514V36.7753Z" fill="black"/>
<path d="M42.2991 3.12268C41.7595 4.05483 41.1731 4.72406 40.9619 5.4889C39.7655 9.79113 37.5134 13.4719 34.6279 16.7703C33.5019 18.061 32.3759 19.3516 31.1794 20.5945C30.288 21.5266 29.0681 21.5983 28.1532 20.953C26.1592 19.5906 24.2355 18.1327 23.8836 15.3362C23.5083 12.4203 23.9775 9.95844 25.9715 7.64001C27.8013 5.4889 29.4435 3.21828 31.8128 1.5691C34.4637 -0.247395 37.2085 -0.247395 40.0939 0.374037C40.4224 0.445741 40.7508 0.756457 40.9619 1.04327C41.4546 1.73641 41.9003 2.47735 42.2756 3.07488L42.2991 3.12268ZM38.1937 2.31004C34.3464 2.38174 31.8128 4.05483 29.5842 6.44495C27.0741 9.16969 26.5111 12.3486 27.1445 15.8859C27.426 17.5112 28.8101 17.6546 29.8892 18.1088C30.8041 18.4912 31.3906 17.7263 31.9536 16.9854C34.7452 13.4719 36.5751 9.48041 37.8888 5.22599C38.1468 4.38945 38.0764 3.4334 38.1703 2.31004H38.1937Z" fill="black"/>
<path d="M43.2374 30.2983C42.1583 30.1071 41.0557 30.0114 40.0235 29.7007C36.9503 28.7686 35.7304 26.5458 36.3169 23.3191C36.7157 21.0246 38.006 19.1842 39.3666 17.4872C41.2199 15.1449 43.3312 12.9699 45.5598 11.01C46.6155 10.0778 48.1404 9.57588 49.5479 9.24127C51.1666 8.83495 52.1988 9.43248 52.6211 11.0339C52.9495 12.3006 53.1372 13.7347 52.8791 15.0015C51.9642 19.5666 49.9936 23.7254 47.7416 27.7408C46.7563 29.5095 45.2314 30.2983 43.2374 30.2983ZM42.4163 27.2867C43.8942 27.3106 44.8561 26.8087 45.8883 25.4463C48.4453 22.0284 48.9614 17.8218 50.5567 14.0693C50.9085 13.2806 51.0024 12.3245 50.0406 11.7509C49.1491 11.2012 48.3749 11.5836 47.6946 12.205C44.7388 14.9298 42.041 17.8935 39.7889 21.2636C39.132 22.2435 38.9678 23.3191 39.437 24.3947C39.5778 24.7054 40.0939 24.8727 40.1877 25.1834C40.7976 27.1911 40.8211 27.2389 42.4163 27.2867Z" fill="black"/>
<path d="M18.1596 13.878C17.7843 14.9775 17.4559 16.1008 17.0101 17.1764C16.541 18.3476 16.0952 19.5426 15.4384 20.6182C14.4531 22.2196 13.374 23.7492 12.1776 25.1833C11.8022 25.6374 10.9342 25.7569 10.2774 25.9004C9.59705 26.0438 8.89327 26.0199 8.1895 26.1394C5.56207 26.5457 3.14577 24.7292 3.07539 22.0045C2.98156 18.491 4.06068 15.4555 7.27459 13.5673C8.75252 12.7069 10.2304 11.8225 11.7553 10.986C12.3652 10.6514 13.0221 10.3406 13.7024 10.1972C16.8929 9.4324 18.0658 10.4363 18.2066 13.878H18.1596ZM15.8137 12.4201C15.3445 12.444 14.8754 12.4201 14.4531 12.5396C11.7084 13.3283 9.31554 14.7863 7.18075 16.6984C5.8905 17.8695 5.93741 19.5665 5.93741 21.1201C5.93741 22.4586 7.01654 23.3668 8.30679 23.1039C9.47975 22.8649 10.6996 22.3391 11.638 21.5981C13.5382 20.1402 15.6026 15.3599 15.7903 12.444L15.8137 12.4201Z" fill="black"/>
<path d="M33.971 44.7106C33.8068 43.2526 34.5809 42.0097 35.707 40.7669C37.443 38.8548 39.3197 37.3968 41.9237 36.8471C43.3312 36.5364 44.6215 35.652 46.0056 35.1262C47.8119 34.433 48.9849 35.1262 48.7268 36.9905C48.1404 41.1254 47.5539 45.3798 44.34 48.5109C42.1348 50.662 39.3666 50.6381 36.6688 50.2079C34.839 49.9211 33.8537 47.6265 33.9475 44.7345L33.971 44.7106ZM46.7093 37.6836C44.7857 37.7553 40.9384 39.0938 39.437 40.2889C37.8887 41.5317 36.6688 43.0136 36.27 45.0691C35.9885 46.4315 36.7392 47.9133 37.7949 48.1524C39.132 48.4392 42.6978 47.0529 43.3547 45.7383C44.598 43.2287 45.7006 40.6474 46.8266 38.0899C46.8736 37.9943 46.7563 37.8031 46.7093 37.6597V37.6836Z" fill="black"/>
</g>
</svg>
